<mxfile host="app.diagrams.net" modified="2024-04-21T03:11:52.444Z" agent="Mozilla/5.0 (Windows NT 10.0; Win64; x64; rv:126.0) Gecko/20100101 Firefox/126.0" version="24.2.2" etag="uOhSMwdvEv89Ve9vBdH6" type="github">
  <diagram name="Page-1" id="Aq2bJKg8plhImVTjYg11">
    <mxGraphModel>
      <root>
        <mxCell id="0" />
        <mxCell id="1" parent="0" />
      </root>
    </mxGraphModel>
  </diagram>
</mxfile>
